<svg xmlns="http://www.w3.org/2000/svg" xmlns:xlink="http://www.w3.org/1999/xlink" width="256" height="256" viewBox="0 0 256 256" xml:space="preserve"><defs></defs><g style="stroke: none; stroke-width: 0; stroke-dasharray: none; stroke-linecap: butt; stroke-linejoin: miter; stroke-miterlimit: 10; fill: none; fill-rule: nonzero; opacity: 1;" transform="translate(1.4065934065934016 1.4065934065934016) scale(2.81 2.81)">	<path d="M 61.443 66.062 L 49.728 47.404 c -0.01 -0.015 -0.023 -0.027 -0.033 -0.042 c -0.052 -0.077 -0.108 -0.152 -0.174 -0.218 c -0.066 -0.066 -0.141 -0.122 -0.218 -0.174 c -0.015 -0.01 -0.027 -0.024 -0.042 -0.033 L 30.602 35.221 c -0.587 -0.368 -1.349 -0.283 -1.838 0.208 c -0.489 0.489 -0.576 1.252 -0.208 1.838 l 11.716 18.658 c 0.024 0.039 0.057 0.07 0.084 0.106 c 0.04 0.052 0.076 0.107 0.123 0.154 c 0.069 0.069 0.146 0.127 0.226 0.18 c 0.012 0.008 0.022 0.02 0.034 0.027 l 18.658 11.716 c 0.243 0.153 0.517 0.227 0.788 0.227 c 0.383 0 0.764 -0.148 1.05 -0.435 C 61.725 67.411 61.811 66.648 61.443 66.062 z M 46.107 48.46 l -4.311 4.311 l -7.274 -11.585 L 46.107 48.46 z M 43.893 54.869 l 4.311 -4.311 l 7.275 11.586 L 43.893 54.869 z" style="stroke: none; stroke-width: 1; stroke-dasharray: none; stroke-linecap: butt; stroke-linejoin: miter; stroke-miterlimit: 10; fill: rgb(213,124,75); fill-rule: nonzero; opacity: 1;" transform=" matrix(1 0 0 1 0 0) " stroke-linecap="round"></path>	<path d="M 46.483 14.576 v -1.661 c 2.896 -0.675 5.062 -3.272 5.062 -6.37 C 51.545 2.937 48.609 0 45 0 s -6.546 2.937 -6.546 6.546 c 0 3.098 2.166 5.695 5.062 6.37 v 1.661 C 23.397 15.359 7.269 31.962 7.269 52.269 C 7.269 73.074 24.195 90 45 90 s 37.731 -16.926 37.731 -37.731 C 82.731 31.962 66.602 15.359 46.483 14.576 z M 41.421 6.546 c 0 -1.973 1.606 -3.579 3.579 -3.579 c 1.973 0 3.578 1.606 3.578 3.579 S 46.973 10.125 45 10.125 C 43.027 10.125 41.421 8.519 41.421 6.546 z M 45 87.033 c -19.169 0 -34.764 -15.595 -34.764 -34.764 C 10.236 33.1 25.831 17.506 45 17.506 S 79.764 33.1 79.764 52.269 C 79.764 71.438 64.169 87.033 45 87.033 z" style="stroke: none; stroke-width: 1; stroke-dasharray: none; stroke-linecap: butt; stroke-linejoin: miter; stroke-miterlimit: 10; fill: rgb(213,124,75); fill-rule: nonzero; opacity: 1;" transform=" matrix(1 0 0 1 0 0) " stroke-linecap="round"></path></g></svg>